<svg width="80" height="80" viewBox="0 0 80 80" fill="none" xmlns="http://www.w3.org/2000/svg">
<path d="M26.9521 59.6684C26.9521 63.904 23.634 67.3376 19.5408 67.3376C15.4477 67.3376 12.1295 63.904 12.1295 59.6684C12.1295 55.4329 15.4477 51.9993 19.5408 51.9993C23.634 51.9993 26.9521 55.4329 26.9521 59.6684Z" fill="#FF2C2C"/>
<path d="M3.97706 45.0971C23.8393 43.2565 30.5342 52.5106 31.3988 57.3678C36.4385 32.8264 16.4527 31.0369 5.82988 33.2099C1.87719 34.1046 -4.02714 37.7347 3.97706 45.0971Z" fill="#FF2C2C"/>
<path d="M26.9521 20.1726C26.9521 24.4082 23.634 27.8418 19.5408 27.8418C15.4477 27.8418 12.1295 24.4082 12.1295 20.1726C12.1295 15.937 15.4477 12.5034 19.5408 12.5034C23.634 12.5034 26.9521 15.937 26.9521 20.1726Z" fill="#FFCE21"/>
<path d="M33.564 4.28787C35.0623 24.8652 26.0258 31.6618 21.3203 32.4879C44.963 38.0486 46.974 17.3947 45.0242 6.37264C44.2154 2.2702 40.791 -3.89018 33.564 4.28787Z" fill="#FFCE21"/>
<path d="M65.4908 18.6379C65.4908 22.8735 62.1727 26.3071 58.0795 26.3071C53.9864 26.3071 50.6682 22.8735 50.6682 18.6379C50.6682 14.4024 53.9864 10.9688 58.0795 10.9688C62.1727 10.9688 65.4908 14.4024 65.4908 18.6379Z" fill="#22E7DA"/>
<path d="M74.7822 32.8032C55.2124 36.77 47.6243 28.286 46.2765 23.5481C43.729 48.4986 63.7863 48.129 74.1333 44.8253C77.9748 43.5103 83.4825 39.2649 74.7822 32.8032Z" fill="#22E7DA"/>
<path d="M65.4908 59.2844C65.4908 63.52 62.1727 66.9536 58.0795 66.9536C53.9864 66.9536 50.6682 63.52 50.6682 59.2844C50.6682 55.0488 53.9864 51.6152 58.0795 51.6152C62.1727 51.6152 65.4908 55.0488 65.4908 59.2844Z" fill="#8CC90A"/>
<path d="M43.8352 74.8688C43.7308 54.2335 53.2044 48.1073 57.9543 47.6236C34.7451 40.366 31.3435 60.8239 32.5439 71.96C33.0735 76.1109 36.0733 82.504 43.8352 74.8688Z" fill="#8CC90A"/>
</svg>
